<svg xmlns="http://www.w3.org/2000/svg" x="0px" y="0px" width="20" height="20" viewBox="0 0 172 172"
    style="fill: #000000">
    <g fill="none" fill-rule="nonzero" stroke="none" stroke-width="1" stroke-linecap="butt" stroke-linejoin="miter"
        stroke-miterlimit="10" stroke-dasharray="" stroke-dashoffset="0" font-family="none" font-weight="none"
        font-size="none" text-anchor="none" style="mix-blend-mode: normal">
        <path d="M0,172v-172h172v172z" fill="none"></path>
        <g fill="#ffffff">
            <path
                d="M86,6.88c-0.11437,-0.00122 -0.22873,0.00327 -0.34265,0.01344c-12.43614,0.05897 -21.60379,3.21015 -27.6611,6.44328c-4.88509,2.60746 -6.4114,4.42517 -7.42422,5.44219c-1.86114,-0.73796 -3.69562,-1.57891 -5.85203,-1.57891c-9.45834,0 -17.2,7.74166 -17.2,17.2c0,6.97553 4.30942,12.79125 10.32,15.47328v32.27015l-8.80828,8.80828c-2.01584,2.01584 -2.01584,5.28072 0,7.29656c1.00792,1.00792 2.32732,1.51172 3.64828,1.51172c1.32096,0 2.64036,-0.5038 3.64828,-1.51172l0.59797,-0.59797c-0.24319,1.56219 -0.46887,3.11267 -0.7525,4.74344c-0.86865,4.9943 -1.77375,10.93514 -1.77375,21.44625c0,9.76108 4.63838,19.88496 13.19563,27.66781l-4.80391,4.8039c-2.01584,2.01584 -2.01584,5.28072 0,7.29656c1.00792,1.00792 2.32732,1.51172 3.64828,1.51172c1.32096,0 2.6438,-0.5038 3.64828,-1.51172l5.97969,-5.97969c7.95212,4.55775 17.90185,7.42856 29.62969,7.47797c0.02014,0.00242 0.0403,0.00466 0.06047,0.00672c0.08258,0.00028 0.15912,0.00672 0.24187,0.00672c0.11661,0.00145 0.23322,-0.00304 0.34937,-0.01344c11.70706,-0.05699 21.64122,-2.92639 29.58266,-7.47797l5.97969,5.97969c1.00448,1.00792 2.32732,1.51172 3.64828,1.51172c1.32096,0 2.64036,-0.5038 3.64828,-1.51172c2.01584,-2.01584 2.01584,-5.28072 0,-7.29656l-4.81063,-4.81062c8.55394,-7.78223 13.20235,-17.90214 13.20235,-27.6611c0,-10.51111 -0.9051,-16.45195 -1.77375,-21.44625c-0.28363,-1.63077 -0.50931,-3.18125 -0.7525,-4.74344l0.59797,0.59797c1.00792,1.00792 2.32732,1.51172 3.64828,1.51172c1.32096,0 2.64036,-0.5038 3.64828,-1.51172c2.01584,-2.01584 2.01584,-5.28072 0,-7.29656l-8.80828,-8.80828v-32.27015c6.01058,-2.68203 10.32,-8.49776 10.32,-15.47328c0,-9.45834 -7.74166,-17.2 -17.2,-17.2c-2.15641,0 -3.99089,0.84094 -5.85203,1.57891c-1.01282,-1.01702 -2.53913,-2.83473 -7.42422,-5.44219c-6.07416,-3.24213 -15.27283,-6.40822 -27.76188,-6.45c-0.08052,-0.00507 -0.1612,-0.00732 -0.24187,-0.00672zM86,13.76c11.46372,0 19.54335,2.85649 24.76531,5.64375c5.22196,2.78726 7.36375,5.28766 7.36375,5.28766c1.0774,1.22616 2.86809,1.52648 4.28656,0.71891c1.48683,-0.84736 3.10287,-1.33031 4.86437,-1.33031c5.73958,0 10.32,4.58042 10.32,10.32c0,4.8337 -3.2919,8.81576 -7.74,9.9639c-1.51696,0.3918 -2.57761,1.75905 -2.58,3.32578v38.31031c0,7.99648 0.9224,12.68141 1.77375,17.57625c0.85135,4.89484 1.66625,10.13486 1.66625,20.26375c0,15.38485 -15.25755,34.4 -44.72,34.4c-29.46245,0 -44.72,-19.01515 -44.72,-34.4c0,-10.12889 0.8149,-15.36891 1.66625,-20.26375c0.85135,-4.89484 1.77375,-9.57977 1.77375,-17.57625v-38.31031c-0.00239,-1.56674 -1.06304,-2.93398 -2.58,-3.32578c-4.4481,-1.14814 -7.74,-5.13021 -7.74,-9.9639c0,-5.73958 4.58042,-10.32 10.32,-10.32c1.76151,0 3.37755,0.48295 4.86437,1.33031c1.41848,0.80758 3.20917,0.50726 4.28656,-0.71891c0,0 2.14179,-2.50039 7.36375,-5.28766c5.22196,-2.78726 13.3016,-5.64375 24.76531,-5.64375zM67.08,27.52c-8.50862,0 -15.48,6.97138 -15.48,15.48c0,8.50862 6.97138,15.48 15.48,15.48c8.50862,0 15.48,-6.97138 15.48,-15.48c0,-8.50862 -6.97138,-15.48 -15.48,-15.48zM104.91328,27.52672c-8.50672,0 -15.47328,6.96656 -15.47328,15.47328c0,8.50672 6.96656,15.47329 15.47328,15.47328c8.50672,0 15.48,-6.96656 15.48,-15.47328c0,-8.50672 -6.97328,-15.47328 -15.48,-15.47328zM44.72,30.96c-1.89888,0 -3.44,1.54112 -3.44,3.44c0,1.89888 1.54112,3.44 3.44,3.44c0.23392,0 0.43828,-0.08966 0.65844,-0.13437c0.46096,-1.88168 1.13778,-3.68317 2.0425,-5.34813c-0.62952,-0.82904 -1.5795,-1.3975 -2.70094,-1.3975zM127.28,30.96c-1.12144,0 -2.07142,0.56846 -2.70094,1.3975c0.90472,1.66496 1.58154,3.46644 2.0425,5.34813c0.22016,0.04472 0.42452,0.13437 0.65844,0.13437c1.89888,0 3.44,-1.54112 3.44,-3.44c0,-1.89888 -1.54112,-3.44 -3.44,-3.44zM67.08,34.4c4.7904,0 8.6,3.8096 8.6,8.6c0,4.7904 -3.8096,8.6 -8.6,8.6c-2.836,0 -5.30503,-1.35654 -6.86656,-3.44c2.84454,-0.00741 5.14657,-2.31545 5.14656,-5.16c0.00001,-2.84455 -2.30202,-5.15259 -5.14656,-5.16c1.56153,-2.08346 4.03056,-3.44 6.86656,-3.44zM104.91328,34.40672c4.78849,0 8.6,3.80479 8.6,8.59328c0,4.78849 -3.81151,8.59328 -8.6,8.59328c-2.83447,0 -5.29983,-1.35211 -6.85985,-3.43328c2.84454,-0.00741 5.14657,-2.31545 5.14656,-5.16c0.00001,-2.84455 -2.30202,-5.15259 -5.14656,-5.16c1.56001,-2.08117 4.02537,-3.43328 6.85985,-3.43328zM86,55.04c-4.87434,0.00153 -9.08242,2.27647 -10.09156,5.45563c-1.03793,0.64042 -2.02153,1.36309 -2.87562,2.21719c-2.47554,2.47554 -4.23281,5.80052 -4.23281,9.52719c0,0.86 0.19828,4.3114 2.89578,6.67172c1.69105,1.47967 4.12782,2.48006 7.42422,3.06375v4.02453c-0.01754,1.24059 0.63425,2.39452 1.7058,3.01993c1.07155,0.62541 2.39684,0.62541 3.46839,0c1.07155,-0.62541 1.72335,-1.77935 1.7058,-3.01993c-0.01754,1.24059 0.63425,2.39452 1.7058,3.01993c1.07155,0.62541 2.39684,0.62541 3.46839,0c1.07155,-0.62541 1.72335,-1.77935 1.7058,-3.01993v-4.02453c3.2964,-0.58369 5.73317,-1.58408 7.42422,-3.06375c2.69751,-2.36032 2.89578,-5.81172 2.89578,-6.67172c0,-3.72667 -1.75727,-7.05164 -4.23281,-9.52719c-0.85545,-0.85545 -1.84251,-1.57615 -2.88234,-2.21719c-1.00861,-3.17751 -5.21303,-5.45199 -10.08485,-5.45563zM78.79078,66.8314c1.92499,1.25891 4.51265,1.96551 7.20922,1.9686c2.69748,-0.00012 5.28766,-0.70434 7.21594,-1.96187c0.30477,0.22969 0.61021,0.4624 0.88688,0.73906c1.39446,1.39446 2.21719,3.22948 2.21719,4.66281c0,0.86 0.19828,0.8486 -0.54422,1.49828c-0.74249,0.64968 -3.32578,1.94172 -9.77578,1.94172c-6.45,0 -9.03329,-1.29204 -9.77578,-1.94172c-0.74249,-0.64968 -0.54422,-0.63828 -0.54422,-1.49828c0,-1.43333 0.82273,-3.26836 2.21719,-4.66281c0.27893,-0.27893 0.58615,-0.51461 0.8936,-0.74578z">
            </path>
        </g>
    </g>
</svg>