<svg xmlns="http://www.w3.org/2000/svg" x="0px" y="0px" width="24" height="24" viewBox="0 0 172 172"
    style="fill: #000000">
    <g fill="none" fill-rule="nonzero" stroke="none" stroke-width="1" stroke-linecap="butt" stroke-linejoin="miter"
        stroke-miterlimit="10" stroke-dasharray="" stroke-dashoffset="0" font-family="none" font-weight="none"
        font-size="none" text-anchor="none" style="mix-blend-mode: normal">
        <path d="M0,172v-172h172v172z" fill="none"></path>
        <g fill="#ffffff">
            <path
                d="M53.75,25.08333c-21.70625,0 -39.41667,17.71042 -39.41667,39.41667c0,14.67789 11.06406,28.49789 24.55143,42.67106c13.48738,14.17317 30.08859,28.52788 43.31494,41.75423c2.0991,2.09823 5.50149,2.09823 7.60059,0c13.22635,-13.22635 29.82756,-27.58106 43.31494,-41.75423c13.48737,-14.17317 24.55143,-27.99318 24.55143,-42.67106c0,-21.70625 -17.71042,-39.41667 -39.41667,-39.41667c-12.45723,0 -23.30306,6.68825 -32.25,18.04964c-8.94694,-11.36139 -19.79277,-18.04964 -32.25,-18.04964zM53.75,35.83333c10.49405,0 19.22924,5.58426 27.70785,18.99447c0.98543,1.5569 2.6996,2.50061 4.54215,2.50061c1.84255,0 3.55672,-0.94371 4.54215,-2.50061c8.4786,-13.4102 17.2138,-18.99447 27.70785,-18.99447c15.89725,0 28.66667,12.76942 28.66667,28.66667c0,8.61378 -8.64428,21.66878 -21.58399,35.26644c-11.79982,12.39981 -26.4674,25.35443 -39.33268,37.89795c-12.86528,-12.54352 -27.53286,-25.49814 -39.33268,-37.89795c-12.93971,-13.59766 -21.58399,-26.65266 -21.58399,-35.26644c0,-15.89725 12.76942,-28.66667 28.66667,-28.66667z">
            </path>
        </g>
    </g>
</svg>